<svg xmlns="http://www.w3.org/2000/svg" xmlns:xlink="http://www.w3.org/1999/xlink" width="600" height="370" viewBox="0 0 600 370">
  <defs>
    <clipPath id="clip-custom_1">
      <rect width="600" height="370"/>
    </clipPath>
  </defs>
  <g id="custom_1" data-name="custom – 1" clip-path="url(#clip-custom_1)">
    <rect width="600" height="370" fill="#fff"/>
    <g id="Groupe_12" data-name="Groupe 12" transform="translate(-311.25 -1001.106)">
      <g id="Ellipse_1" data-name="Ellipse 1" transform="translate(312 1001.198)" fill="#43438b" stroke="#fff07c" stroke-width="1">
        <circle cx="50" cy="50" r="50" stroke="none"/>
        <circle cx="50" cy="50" r="49.5" fill="none"/>
      </g>
      <g id="Ellipse_2" data-name="Ellipse 2" transform="translate(436.625 1001.198)" fill="#43438b" stroke="#fff07c" stroke-width="1">
        <circle cx="50" cy="50" r="50" stroke="none"/>
        <circle cx="50" cy="50" r="49.5" fill="none"/>
      </g>
      <g id="Ellipse_3" data-name="Ellipse 3" transform="translate(561.25 1001.198)" fill="#43438b" stroke="#fff07c" stroke-width="1">
        <circle cx="50" cy="50" r="50" stroke="none"/>
        <circle cx="50" cy="50" r="49.5" fill="none"/>
      </g>
      <g id="Ellipse_4" data-name="Ellipse 4" transform="translate(685.875 1001.198)" fill="#43438b" stroke="#fff07c" stroke-width="1">
        <circle cx="50" cy="50" r="50" stroke="none"/>
        <circle cx="50" cy="50" r="49.5" fill="none"/>
      </g>
      <g id="Ellipse_5" data-name="Ellipse 5" transform="translate(810.5 1001.198)" fill="#43438b" stroke="#fff07c" stroke-width="1">
        <circle cx="50" cy="50" r="50" stroke="none"/>
        <circle cx="50" cy="50" r="49.5" fill="none"/>
      </g>
      <g id="Page-1" transform="translate(461.621 1031.068)">
        <g id="_034---Tap" data-name="034---Tap" transform="translate(0 0)">
          <path id="Shape" d="M1.53,29.2H14.612a1.482,1.482,0,0,0,1.519-1.279c1.064-10.076,6.3-15.848,16-17.622v.684a.7.7,0,0,1-.217.5l-.635.579a2.037,2.037,0,0,0-.679,1.5v.831a2.211,2.211,0,0,0,2.3,2.116h7.65a2.211,2.211,0,0,0,2.3-2.116v-.825a2.024,2.024,0,0,0-.673-1.5l-.63-.58a.683.683,0,0,1-.23-.506l0-1.167a5.281,5.281,0,0,0-1.664-4.558c-1.906-1.577-5.4-2.045-10.675-1.439C16.993,5.2,11.174,12.136,8.415,17.6v-.386a2.132,2.132,0,0,0-1.508-1.98A10.16,10.16,0,0,1,12.317,6.2a3.265,3.265,0,0,0,2.274.238,2.927,2.927,0,0,0,2.169-2.1,2.69,2.69,0,0,0-1-2.752l-.046-.033-.008-.006A3.231,3.231,0,0,0,13.1,1.069,13.306,13.306,0,0,0,8.358,2.96,14.615,14.615,0,0,0,1.932,13.023c-.018.112-.126.782-.225,1.425-.046.3-.082.542-.109.76A2.138,2.138,0,0,0,0,17.214V27.793a1.357,1.357,0,0,0,.448,1A1.6,1.6,0,0,0,1.53,29.2ZM8.6,20.966c1.913-5.216,7.131-14.2,20.569-15.748,4.743-.546,7.928-.18,9.463,1.09a3.976,3.976,0,0,1,1.157,3.485l0,1.19a2.032,2.032,0,0,0,.676,1.5l.63.58a.679.679,0,0,1,.225.5v.825a.737.737,0,0,1-.765.705H32.9a.737.737,0,0,1-.765-.705v-.831a.672.672,0,0,1,.224-.494L33,12.48a2.047,2.047,0,0,0,.661-1.491l.008-1.533a.684.684,0,0,0-.269-.54.805.805,0,0,0-.622-.158c-11.051,1.7-17,7.926-18.165,19.036H1.53V21.446H7.872a.763.763,0,0,0,.724-.48Zm-5.15-7.734a13.177,13.177,0,0,1,5.764-9.1,11.724,11.724,0,0,1,4.162-1.679,1.7,1.7,0,0,1,1.364.176l.484-.546-.459.564a1.354,1.354,0,0,1,.523,1.281A1.469,1.469,0,0,1,14.19,5.073a1.619,1.619,0,0,1-1.355-.248.818.818,0,0,0-.806-.08A11.489,11.489,0,0,0,5.373,15.1H3.155c.092-.618.226-1.468.291-1.864ZM1.53,17.214a.737.737,0,0,1,.765-.705H6.12a.737.737,0,0,1,.765.705v2.821H1.53Z" transform="translate(0 -0.974)" fill="rgba(255,240,124,0.8)"/>
          <path id="Shape-2" data-name="Shape" d="M36.414,27.446A1.353,1.353,0,0,0,36,28.5l1.443,21.159a1.49,1.49,0,0,0,1.53,1.322h12.41a1.49,1.49,0,0,0,1.53-1.322L54.355,28.5a1.347,1.347,0,0,0-.413-1.055A1.594,1.594,0,0,0,52.825,27H37.534a1.6,1.6,0,0,0-1.12.446ZM51.382,49.569H38.972l-.724-10.65a18.378,18.378,0,0,0,6.024-1.855,13.429,13.429,0,0,1,5.7-1.6,10.592,10.592,0,0,1,2.355.248l-.944,13.858ZM52.83,28.411l-.4,5.876a12.528,12.528,0,0,0-2.453-.233A14.958,14.958,0,0,0,43.6,35.794a17.231,17.231,0,0,1-5.45,1.715l-.618-9.1Z" transform="translate(-8.458 -8.644)" fill="rgba(255,240,124,0.8)"/>
        </g>
      </g>
      <g id="call" transform="translate(587.382 1030.222)">
        <g id="Groupe_2" data-name="Groupe 2" transform="translate(0 0)">
          <g id="Groupe_1" data-name="Groupe 1" transform="translate(0 0)">
            <path id="Tracé_5" data-name="Tracé 5" d="M47.484,34.967l-9.662-5.94a2.983,2.983,0,0,0-3.776.565l-2.814,3.336a1.27,1.27,0,0,1-1.542.3l-.535-.272c-1.775-.892-3.983-2-8.432-6.105S15.066,20.71,14.1,19.076l-.294-.494a1.055,1.055,0,0,1,.318-1.427l3.616-2.594a2.468,2.468,0,0,0,.614-3.481L11.91,2.173a2.952,2.952,0,0,0-3.782-.785L4.088,3.625a5.335,5.335,0,0,0-2.6,3.11c-1.455,4.887-.36,13.322,13.117,25.748,10.721,9.883,18.7,12.541,24.188,12.541a15.22,15.22,0,0,0,3.739-.45,5.655,5.655,0,0,0,3.373-2.4l2.429-3.723A2.467,2.467,0,0,0,47.484,34.967Zm-.52,2.735L44.54,41.428a4.081,4.081,0,0,1-2.426,1.734C37.22,44.4,28.67,43.374,15.731,31.446S1.68,11.635,3.023,7.123a3.857,3.857,0,0,1,1.883-2.24l4.04-2.235a1.281,1.281,0,0,1,1.641.34l3.5,4.845L17.026,11.9a1.071,1.071,0,0,1-.266,1.511L13.143,16a2.438,2.438,0,0,0-.737,3.294l.287.481c1.017,1.719,2.281,3.858,6.9,8.111s6.934,5.419,8.8,6.356l.523.265a2.941,2.941,0,0,0,3.573-.68L35.3,30.494a1.3,1.3,0,0,1,1.639-.245l9.661,5.94A1.07,1.07,0,0,1,46.964,37.7Z" transform="translate(-1 -1.018)" fill="#fff07c"/>
            <path id="Tracé_6" data-name="Tracé 6" d="M283.423,70.791c7.465.008,13.515,5.585,13.523,12.468a.8.8,0,0,0,1.591,0c-.009-7.692-6.771-13.926-15.114-13.934a.736.736,0,1,0,0,1.467Z" transform="translate(-256.374 -63.454)" fill="#fff07c"/>
            <path id="Tracé_7" data-name="Tracé 7" d="M283.423,121.991c4.83.005,8.745,3.614,8.75,8.067a.8.8,0,0,0,1.591,0c-.007-5.263-4.633-9.528-10.341-9.534a.736.736,0,1,0,0,1.467Z" transform="translate(-256.374 -110.253)" fill="#fff07c"/>
            <path id="Tracé_8" data-name="Tracé 8" d="M283.423,173.191a3.836,3.836,0,0,1,3.977,3.667.8.8,0,0,0,1.591,0,5.37,5.37,0,0,0-5.568-5.134.736.736,0,1,0,0,1.467Z" transform="translate(-256.374 -157.053)" fill="#fff07c"/>
          </g>
        </g>
      </g>
      <path id="baguette" d="M45.412.972A3.663,3.663,0,0,0,42.692,0c-2.921.066-7.146,2.583-10.53,6.27a14.913,14.913,0,0,0-3.178,2.049c-.2.2-.39.416-.569.634l-.015.02a8.025,8.025,0,0,0-1.785,4.094,8.135,8.135,0,0,0-4.747,2.369c-.2.2-.387.413-.565.629l-.067.084A8.012,8.012,0,0,0,19.5,20.183a8.054,8.054,0,0,0-4.331,1.984.715.715,0,0,0-.092.061c-.053.054-.1.109-.151.163s-.117.1-.174.16A8.134,8.134,0,0,0,12.383,27.3a8.134,8.134,0,0,0-4.747,2.368c-.091.091-.166.184-.25.276a.7.7,0,0,0-.073.049A6.3,6.3,0,0,0,5.52,32.937C2.107,36.519-1.836,42.678.935,45.45A6.628,6.628,0,0,0,5.633,47a11.968,11.968,0,0,0,1.63-.115,13.19,13.19,0,0,0,7.413-3.612L42.763,15.187a14.562,14.562,0,0,0,3.843-7.618c.511-2.872.064-5.338-1.194-6.6Zm-.385,6.315a12.932,12.932,0,0,1-3.4,6.764L13.542,42.138a11.551,11.551,0,0,1-6.5,3.157c-2.138.292-4.088-.093-4.976-.981-1.317-1.318.294-5.282,3.552-9.1a7.032,7.032,0,0,0,2.733,3.324.8.8,0,0,0,.941-1.3C7.863,36.2,7.094,35.146,7.009,34.1a2.5,2.5,0,0,1,.012-.457,2.816,2.816,0,0,0,.422-.74h0a5.377,5.377,0,0,1,1.326-2.1,6.614,6.614,0,0,1,3.9-1.915,5.808,5.808,0,0,0,2.993,3.288.794.794,0,0,0,.384.1.8.8,0,0,0,.387-1.506,4.014,4.014,0,0,1-2.347-2.822c-.188-1.313.529-2.907,1.956-4.4A6.624,6.624,0,0,1,19.579,21.8a5.447,5.447,0,0,0,2.452,3.929.8.8,0,1,0,.87-1.35,3.861,3.861,0,0,1-1.756-2.929,6.093,6.093,0,0,1,1.377-4.34l.015-.019a6.71,6.71,0,0,1,4.257-2.424,5.457,5.457,0,0,0,2.463,3.843.8.8,0,1,0,.862-1.355A3.919,3.919,0,0,1,28.342,14.2a5.907,5.907,0,0,1,1.774-4.739A11.365,11.365,0,0,1,32.39,7.963a3.983,3.983,0,0,0,.013.715A4.724,4.724,0,0,0,34.89,12.1a.8.8,0,1,0,.83-1.372A3.285,3.285,0,0,1,34,8.486a4.171,4.171,0,0,1,1.557-3.243c.007-.007.009-.017.016-.024,2.543-2.161,5.258-3.569,7.157-3.611h.084a1.991,1.991,0,0,1,1.464.5c.864.859,1.158,2.892.752,5.178Zm0,0" transform="translate(713.245 1027.204)" fill="#fff07c"/>
      <g id="panier_de_courses" data-name="panier de courses" transform="translate(836.192 1020.433)">
        <path id="Tracé_9" data-name="Tracé 9" d="M268.181,185.171a1.073,1.073,0,0,0,1.361-.672,1.893,1.893,0,0,1,2.4-1.181,4.042,4.042,0,0,0,5.118-2.525,1.073,1.073,0,1,0-2.033-.69,1.891,1.891,0,0,1-2.4,1.181,4.047,4.047,0,0,0-5.118,2.525A1.076,1.076,0,0,0,268.181,185.171Zm0,0" transform="translate(-235.588 -158.003)" fill="#fff07c"/>
        <path id="Tracé_10" data-name="Tracé 10" d="M289.5,122.369a1.073,1.073,0,0,0,1.361-.672,1.887,1.887,0,0,1,2.4-1.181,4.042,4.042,0,0,0,5.118-2.526,1.073,1.073,0,1,0-2.032-.69,1.889,1.889,0,0,1-2.4,1.182,4.034,4.034,0,0,0-5.118,2.525,1.073,1.073,0,0,0,.671,1.362Zm0,0" transform="translate(-254.367 -102.682)" fill="#fff07c"/>
        <path id="Tracé_11" data-name="Tracé 11" d="M310.807,64.17a1.074,1.074,0,0,0,1.362-.672,1.4,1.4,0,0,1,1.769-.873,3.54,3.54,0,0,0,4.494-2.215,1.074,1.074,0,1,0-2.033-.69,1.392,1.392,0,0,1-1.77.871,3.551,3.551,0,0,0-4.492,2.216A1.076,1.076,0,0,0,310.807,64.17Zm0,0" transform="translate(-273.136 -51.963)" fill="#fff07c"/>
        <path id="Tracé_12" data-name="Tracé 12" d="M45.448,27.088a1.4,1.4,0,0,0-.612-.229A75.564,75.564,0,0,0,48.307,6.67,7.224,7.224,0,0,0,45.361.662,4.4,4.4,0,0,0,40.777.613c-3.207,1.654-5.5,6.521-7.342,10.432l-.313.663A6.218,6.218,0,0,0,29.72,7.4a5.12,5.12,0,0,0-3.98-3.958,3.347,3.347,0,0,0-.081-.332A3.7,3.7,0,0,0,22.589.493a3.65,3.65,0,0,0-2.281.469,3.9,3.9,0,0,0-1.9-.495,3.955,3.955,0,0,0-3.844,3.045,4.835,4.835,0,0,0-3.553,4.606,5.376,5.376,0,0,0-3.661,7.147,4.218,4.218,0,0,0-.939,2.66,4.174,4.174,0,0,0,.35,1.679A5.7,5.7,0,0,0,2.486,17.54a1.074,1.074,0,0,0,.032,2.147c.036,0,.069,0,.1,0a3.728,3.728,0,0,1,2.622,1.438c-1.7.491-3.755,1.289-4.713,3.1a5.465,5.465,0,0,0-.26,3.957A1.864,1.864,0,0,0,0,29.23L1.83,55.195A6.114,6.114,0,0,0,7.939,61H38.073a6.109,6.109,0,0,0,6.108-5.786l1.873-26.868c0-.006,0-.013,0-.019a1.393,1.393,0,0,0-.608-1.239ZM34,14.779c.425-.793.889-1.777,1.379-2.819C36.991,8.533,39.2,3.841,41.76,2.521A2.339,2.339,0,0,1,44.22,2.48,5.184,5.184,0,0,1,46.16,6.614a73.532,73.532,0,0,1-3.447,19.853c-.07.224-.224.677-.444,1.3l-1.829.813a1.06,1.06,0,0,0-.116.061,3.3,3.3,0,0,1-3.426,0l-.765-.459a5.541,5.541,0,0,0-2.854-.792l-.036,0a5.532,5.532,0,0,0-2.89.79l-.764.459a3.369,3.369,0,0,1-1.374.434c.027-.093.058-.185.086-.277.294-1,.61-1.985.94-2.963.126-.372.257-.741.388-1.109.276-.776.565-1.542.863-2.3.133-.34.263-.684.4-1.021A71.728,71.728,0,0,1,34,14.779ZM20.313,17.325c.125-.161.248-.317.364-.47a.006.006,0,0,1,0,0A2.649,2.649,0,0,0,20.9,16.5a2.3,2.3,0,0,0,.2-1.6l4.481-.98a2.459,2.459,0,0,0,.114.4,2.409,2.409,0,0,0,1.058,1.186c.163.09.334.18.51.274.145.076.29.155.436.235.07.038.141.075.21.114.128.072.251.151.376.229.107.066.212.133.315.205.119.082.233.174.347.266s.2.171.29.262a4.307,4.307,0,0,1,.3.313,3.689,3.689,0,0,1,.454.648c-.455,1-.883,2.03-1.3,3.064-.065.16-.133.316-.2.476a10.958,10.958,0,0,0-3.718,1.856,6.319,6.319,0,0,1-5.257,1.277l-.652-2.983c-.442-2.017.517-3.239,1.443-4.421Zm5.323-6.519a.465.465,0,0,1,.084-.008.452.452,0,0,1,.437.349.448.448,0,0,1-.338.528l-5.93,1.3A.444.444,0,1,1,19.7,12.1l3.151-.689Zm-3.469,16.6c-.081.006-.164.007-.246.016a5.51,5.51,0,0,0-1.711.454L20,26.94c.309.026.618.052.906.052a8.3,8.3,0,0,0,5.112-1.79,13.124,13.124,0,0,1,1.488-.926c-.1.28-.2.559-.292.84-.069.2-.143.4-.209.6q-.473,1.433-.9,2.89l-.714-.427a5.539,5.539,0,0,0-2.853-.793l-.04,0c-.114,0-.227.011-.339.017Zm-12.84-11.1.7-.579-.456-.787A3.227,3.227,0,0,1,12.238,10.1l1.3-.055-.3-1.269A2.645,2.645,0,0,1,15.619,5.5l.992-.075V4.355a1.8,1.8,0,0,1,1.8-1.741,1.774,1.774,0,0,1,1.2.47l.753.679.721-.713a1.52,1.52,0,0,1,1.253-.425A1.549,1.549,0,0,1,23.6,3.719a1.4,1.4,0,0,1,.051.57l-.126,1.2h1.209a2.956,2.956,0,0,1,2.939,2.745l.048.706.666.234a4.092,4.092,0,0,1,2.744,3.954,3.874,3.874,0,0,1-.7,2.131,11.36,11.36,0,0,0-2.143-1.363c-.168-.089-.331-.175-.5-.266a.234.234,0,0,1-.121-.184.612.612,0,0,1,.149-.477,2.305,2.305,0,0,0,.5-1.983l-.13-.592a2.289,2.289,0,0,0-2.723-1.747l-.288.063H25.17L22.019,9.4l-3.074.671A2.292,2.292,0,0,0,17.2,12.8l.064.292v0s0,0,0,0l.063.291a2.283,2.283,0,0,0,1.328,1.607.649.649,0,0,1,.356.347c.028.08.012.12-.051.223h0c-.106.143-.221.288-.338.437s-.241.308-.365.471c-.042.054-.081.111-.123.167-.089.121-.178.245-.266.374-.048.07-.094.142-.142.215-.081.126-.16.255-.237.389-.045.077-.089.154-.132.234-.081.15-.154.308-.226.47-.031.068-.064.134-.092.206a5.885,5.885,0,0,0-.245.736c-.011.041-.015.085-.025.127a5.86,5.86,0,0,0-.121.682c-.01.094-.013.193-.019.291-.009.127-.025.247-.025.379l-.013-.016c-.015-.02-.03-.037-.044-.056-.187-.246-.374-.472-.561-.687-.059-.067-.119-.133-.179-.2q-.237-.256-.475-.481c-.051-.048-.1-.1-.155-.148a7.445,7.445,0,0,0-.605-.49c-.057-.04-.115-.075-.172-.114-.153-.1-.3-.2-.46-.28-.075-.041-.149-.081-.225-.117a4.777,4.777,0,0,0-.483-.2c-.054-.019-.108-.045-.161-.062a4.412,4.412,0,0,0-.531-.134c-.02,0-.041,0-.061-.005-.036-.007-.072-.02-.108-.026-.125-.018-.243-.011-.365-.02-.086-.005-.17-.023-.256-.023-.026,0-.053.007-.079.007a4.358,4.358,0,0,0-.49.041c-.081.011-.161.017-.242.032a5.049,5.049,0,0,0-.619.157c-.031.01-.061.017-.093.028a6.743,6.743,0,0,0-1.515.748,2.045,2.045,0,0,1-.149-.769,2.092,2.092,0,0,1,.767-1.617Zm-6.9,8.913c.454-.855,1.557-1.508,3.471-2.056a5.8,5.8,0,0,0,2.4-1.378c.306-.293.592-.541.869-.766a4.776,4.776,0,0,1,2.286-1.173l.045-.005a2.18,2.18,0,0,1,.622.018c.053.01.106.028.16.042a2.22,2.22,0,0,1,.3.089c.064.025.128.062.194.092.093.045.186.086.279.143.073.044.146.1.219.151s.174.117.262.188.163.145.245.219.163.142.245.224.182.2.273.3c.074.082.148.159.223.248.1.122.2.262.308.4.066.086.13.163.2.255.117.163.235.344.353.525.052.079.1.15.155.232q.256.4.515.861a8.155,8.155,0,0,1,.709,5.248c-.057-.006-.113-.014-.17-.023a3.331,3.331,0,0,1-1.162-.416l-.766-.459a5.539,5.539,0,0,0-2.853-.792l-.036,0a5.531,5.531,0,0,0-2.89.79l-.372.223a4.161,4.161,0,0,1-2.1.592A4.147,4.147,0,0,1,4.3,28.4l-1.444-.867h0a1.834,1.834,0,0,0-.605-.229,3.085,3.085,0,0,1,.182-2.084ZM42.043,55.084a3.969,3.969,0,0,1-3.965,3.768H7.942a3.973,3.973,0,0,1-3.967-3.788L2.189,29.684l.934.561a6.3,6.3,0,0,0,3.283.9,6.3,6.3,0,0,0,3.282-.9l.373-.223a3.288,3.288,0,0,1,3.425,0l.766.459a5.521,5.521,0,0,0,3.15.771c.1,0,.193,0,.291-.013.012,0,.023-.008.035-.009a5.513,5.513,0,0,0,2.116-.691,1.038,1.038,0,0,0,.187-.058l.766-.459a3.288,3.288,0,0,1,3.425,0l.766.459a5.547,5.547,0,0,0,2.626.776c.018,0,.038,0,.056,0a5.455,5.455,0,0,0,.938-.044c.178-.023.351-.067.526-.108.085-.02.17-.039.254-.063a5.5,5.5,0,0,0,1.378-.565l.766-.46a3.292,3.292,0,0,1,3.426,0l.766.46a5.543,5.543,0,0,0,2.876.788c.016,0,.033,0,.049,0a5.541,5.541,0,0,0,2.794-.756l2.106-.936a1.107,1.107,0,0,0,.119-.085l.164-.073Zm0,0" transform="translate(0 0)" fill="#fff07c"/>
        <path id="Tracé_13" data-name="Tracé 13" d="M46.136,371.6H53.65a1.074,1.074,0,0,0,0-2.147H46.136a1.074,1.074,0,0,0,0,2.147Zm0,0" transform="translate(-39.694 -325.437)" fill="#fff07c"/>
        <path id="Tracé_14" data-name="Tracé 14" d="M46.136,407.644H55.8a1.074,1.074,0,0,0,0-2.147H46.136a1.074,1.074,0,0,0,0,2.147Zm0,0" transform="translate(-39.694 -357.186)" fill="#fff07c"/>
        <path id="Tracé_15" data-name="Tracé 15" d="M57.944,441.539H46.136a1.073,1.073,0,0,0,0,2.147H57.944a1.073,1.073,0,1,0,0-2.147Zm0,0" transform="translate(-39.694 -388.934)" fill="#fff07c"/>
        <path id="Tracé_16" data-name="Tracé 16" d="M183.435,441.539h-2.147a1.073,1.073,0,1,0,0,2.147h2.147a1.073,1.073,0,1,0,0-2.147Zm0,0" transform="translate(-158.744 -388.934)" fill="#fff07c"/>
      </g>
      <g id="Ellipse_6" data-name="Ellipse 6" transform="translate(312 1134.875)" fill="#43438b" stroke="#fff07c" stroke-width="1">
        <circle cx="50" cy="50" r="50" stroke="none"/>
        <circle cx="50" cy="50" r="49.5" fill="none"/>
      </g>
      <g id="Ellipse_7" data-name="Ellipse 7" transform="translate(436.625 1134.875)" fill="#43438b" stroke="#fff07c" stroke-width="1">
        <circle cx="50" cy="50" r="50" stroke="none"/>
        <circle cx="50" cy="50" r="49.5" fill="none"/>
      </g>
      <g id="Ellipse_8" data-name="Ellipse 8" transform="translate(561.25 1134.875)" fill="#43438b" stroke="#fff07c" stroke-width="1">
        <circle cx="50" cy="50" r="50" stroke="none"/>
        <circle cx="50" cy="50" r="49.5" fill="none"/>
      </g>
      <g id="Ellipse_9" data-name="Ellipse 9" transform="translate(685.875 1134.875)" fill="#43438b" stroke="#fff07c" stroke-width="1">
        <circle cx="50" cy="50" r="50" stroke="none"/>
        <circle cx="50" cy="50" r="49.5" fill="none"/>
      </g>
      <g id="Ellipse_10" data-name="Ellipse 10" transform="translate(810.5 1134.875)" fill="#43438b" stroke="#fff07c" stroke-width="1">
        <circle cx="50" cy="50" r="50" stroke="none"/>
        <circle cx="50" cy="50" r="49.5" fill="none"/>
      </g>
      <g id="Ellipse_11" data-name="Ellipse 11" transform="translate(312 1271.792)" fill="#43438b" stroke="#fff07c" stroke-width="1">
        <circle cx="50" cy="50" r="50" stroke="none"/>
        <circle cx="50" cy="50" r="49.5" fill="none"/>
      </g>
      <g id="Ellipse_12" data-name="Ellipse 12" transform="translate(436.625 1271.792)" fill="#43438b" stroke="#fff07c" stroke-width="1">
        <circle cx="50" cy="50" r="50" stroke="none"/>
        <circle cx="50" cy="50" r="49.5" fill="none"/>
      </g>
      <g id="Ellipse_13" data-name="Ellipse 13" transform="translate(561.25 1271.792)" fill="#43438b" stroke="#fff07c" stroke-width="1">
        <circle cx="50" cy="50" r="50" stroke="none"/>
        <circle cx="50" cy="50" r="49.5" fill="none"/>
      </g>
      <g id="Ellipse_14" data-name="Ellipse 14" transform="translate(685.875 1271.792)" fill="#43438b" stroke="#fff07c" stroke-width="1">
        <circle cx="50" cy="50" r="50" stroke="none"/>
        <circle cx="50" cy="50" r="49.5" fill="none"/>
      </g>
      <g id="Ellipse_15" data-name="Ellipse 15" transform="translate(810.5 1271.792)" fill="#43438b" stroke="#fff07c" stroke-width="1">
        <circle cx="50" cy="50" r="50" stroke="none"/>
        <circle cx="50" cy="50" r="49.5" fill="none"/>
      </g>
      <g id="journal" transform="translate(337.702 1167.276)">
        <path id="Tracé_17" data-name="Tracé 17" d="M26.71,16H17v8.952h9.71Zm-1.387,7.673H18.387V17.279h6.936Z" transform="translate(-5.903 -5.769)" fill="#fff07c"/>
        <path id="Tracé_18" data-name="Tracé 18" d="M46.79,16h-11.1a.642.642,0,1,0,0,1.279h11.1a.642.642,0,1,0,0-1.279Z" transform="translate(-11.419 -5.769)" fill="#fff07c"/>
        <path id="Tracé_19" data-name="Tracé 19" d="M46.79,22h-11.1a.642.642,0,1,0,0,1.279h11.1a.642.642,0,1,0,0-1.279Z" transform="translate(-11.419 -7.933)" fill="#fff07c"/>
        <path id="Tracé_20" data-name="Tracé 20" d="M46.79,28h-11.1a.642.642,0,1,0,0,1.279h11.1a.642.642,0,1,0,0-1.279Z" transform="translate(-11.419 -10.097)" fill="#fff07c"/>
        <path id="Tracé_21" data-name="Tracé 21" d="M41.581,34H18.694a.642.642,0,1,0,0,1.279H41.581a.642.642,0,1,0,0-1.279Z" transform="translate(-6.21 -12.26)" fill="#fff07c"/>
        <path id="Tracé_22" data-name="Tracé 22" d="M29.1,40h-10.4a.642.642,0,1,0,0,1.279H29.1A.642.642,0,1,0,29.1,40Z" transform="translate(-6.21 -14.424)" fill="#fff07c"/>
        <path id="Tracé_23" data-name="Tracé 23" d="M29.1,46h-10.4a.642.642,0,1,0,0,1.279H29.1A.642.642,0,1,0,29.1,46Z" transform="translate(-6.21 -16.587)" fill="#fff07c"/>
        <path id="Tracé_24" data-name="Tracé 24" d="M29.1,52h-10.4a.642.642,0,1,0,0,1.279H29.1A.642.642,0,1,0,29.1,52Z" transform="translate(-6.21 -18.751)" fill="#fff07c"/>
        <path id="Tracé_25" data-name="Tracé 25" d="M39,48.952h9.71V40H39Zm1.387-7.673h6.936v6.394H40.387Z" transform="translate(-12.645 -14.424)" fill="#fff07c"/>
        <path id="Tracé_26" data-name="Tracé 26" d="M41.226,8.312c0-.011-.006-.02-.007-.031V0H7.936V19.182H1V34.528a4.013,4.013,0,0,0,4.161,3.836h31.9a4.007,4.007,0,0,0,4.154-3.83V8.343C41.22,8.332,41.226,8.323,41.226,8.312ZM39.832,1.279V7.673H9.323V1.279ZM2.387,34.528V20.461H7.936V34.528a2.675,2.675,0,0,1-2.774,2.558A2.675,2.675,0,0,1,2.387,34.528Zm34.678,2.558H8.261c.011-.012.019-.025.029-.036a3.852,3.852,0,0,0,.386-.476c.019-.027.036-.054.054-.082a3.652,3.652,0,0,0,.293-.542c.011-.026.021-.052.031-.079a3.574,3.574,0,0,0,.189-.607c0-.019.006-.039.01-.058a3.529,3.529,0,0,0,.069-.678V8.952h30.51V34.534A2.669,2.669,0,0,1,37.065,37.086Z" transform="translate(-1)" fill="#fff07c"/>
        <path id="Tracé_27" data-name="Tracé 27" d="M39.645,4H23V7.836H39.645ZM38.258,6.558H24.387V5.279H38.258Z" transform="translate(-7.742 -1.442)" fill="#fff07c"/>
      </g>
      <g id="toilet" transform="translate(469.168 1159.353)">
        <g id="Groupe_3" data-name="Groupe 3">
          <path id="Tracé_28" data-name="Tracé 28" d="M133.774,20.87a2.622,2.622,0,0,0-2.408-1.558h-1.756V8.778h2.633a.878.878,0,1,0,0-1.756h-2.633V5.105A2.627,2.627,0,0,0,128.733,0H107.666a2.627,2.627,0,0,0-.878,5.105V19.312h-1.756a2.622,2.622,0,0,0-1.949,4.389,2.622,2.622,0,0,0,1.949,4.389h.056c.35,3.374,2.7,6.3,6.089,8.017V50.035a2.636,2.636,0,0,0,2.633,2.633h8.778a2.636,2.636,0,0,0,2.633-2.633V36.107c3.394-1.721,5.739-4.643,6.089-8.017h.055a2.622,2.622,0,0,0,1.949-4.389A2.622,2.622,0,0,0,133.774,20.87ZM107.666,1.756h21.067a.878.878,0,0,1,0,1.756H107.666a.878.878,0,1,1,0-1.756Zm20.189,3.511V19.312H108.544V5.267Zm-4.389,44.768a.879.879,0,0,1-.878.878h-8.778a.879.879,0,0,1-.878-.878V36.86a16.105,16.105,0,0,0,10.534,0V50.035ZM124,34.76h0a14.3,14.3,0,0,1-11.6,0h0c-3.043-1.39-5.183-3.83-5.551-6.67h22.71C129.186,30.93,127.045,33.37,124,34.76Zm7.364-8.426H105.032a.878.878,0,1,1,0-1.756h26.334a.878.878,0,1,1,0,1.756Zm0-3.511H105.032a.878.878,0,1,1,0-1.756h26.334a.878.878,0,1,1,0,1.756Z" transform="translate(-102.399 0)" fill="#fff07c"/>
        </g>
      </g>
      <g id="wifi" transform="translate(335 1030.184)">
        <path id="Tracé_29" data-name="Tracé 29" d="M54.615,19.123a38.454,38.454,0,0,0-54.322,0,1,1,0,0,0,1.414,1.414,36.454,36.454,0,0,1,51.494,0,1,1,0,1,0,1.414-1.413Z" transform="translate(0 -7.89)" fill="#fff07c"/>
        <path id="Tracé_30" data-name="Tracé 30" d="M6.171,25a1,1,0,1,0,1.414,1.414,28.129,28.129,0,0,1,39.737,0A1,1,0,0,0,48.736,25,30.132,30.132,0,0,0,6.171,25Z" transform="translate(0 -7.89)" fill="#fff07c"/>
        <path id="Tracé_31" data-name="Tracé 31" d="M27.454,24.508a21.64,21.64,0,0,0-15.4,6.371,1,1,0,1,0,1.414,1.414,19.809,19.809,0,0,1,27.98,0,1,1,0,1,0,1.414-1.414A21.638,21.638,0,0,0,27.454,24.508Z" transform="translate(0 -7.89)" fill="#fff07c"/>
        <path id="Tracé_32" data-name="Tracé 32" d="M27.454,33.916a6.552,6.552,0,1,0,6.552,6.552A6.559,6.559,0,0,0,27.454,33.916Zm0,11.1a4.552,4.552,0,1,1,4.552-4.552A4.556,4.556,0,0,1,27.454,45.019Z" transform="translate(0 -7.89)" fill="#fff07c"/>
      </g>
      <g id="first-aid-kit" transform="translate(584.328 1162.448)">
        <g id="Groupe_5" data-name="Groupe 5">
          <g id="Groupe_4" data-name="Groupe 4">
            <path id="Tracé_33" data-name="Tracé 33" d="M49.358,43.107h-.9v-.9a2.7,2.7,0,0,0-2.692-2.692h-3.59a2.7,2.7,0,0,0-2.692,2.692v.9H36.794v-3.59a5.39,5.39,0,0,0-5.384-5.384H21.538a5.39,5.39,0,0,0-5.384,5.384v3.59H14.359v-.9a2.7,2.7,0,0,0-2.692-2.692H8.077A2.7,2.7,0,0,0,5.384,42.21v.9h-.9A4.492,4.492,0,0,0,0,47.594V76.312A4.492,4.492,0,0,0,4.487,80.8H49.358a4.492,4.492,0,0,0,4.487-4.487V47.594A4.492,4.492,0,0,0,49.358,43.107Zm-8.077-.9a.9.9,0,0,1,.9-.9h3.59a.9.9,0,0,1,.9.9v.9H41.281ZM17.948,39.517a3.593,3.593,0,0,1,3.59-3.59H31.41A3.593,3.593,0,0,1,35,39.517v3.59H33.2v-3.59a1.8,1.8,0,0,0-1.795-1.795H21.538a1.8,1.8,0,0,0-1.795,1.795v3.59H17.948v-3.59Zm13.461,0v3.59H21.538v-3.59ZM7.179,42.21a.9.9,0,0,1,.9-.9h3.59a.9.9,0,0,1,.9.9v.9H7.179v-.9Zm44.871,34.1A2.7,2.7,0,0,1,49.358,79H4.487a2.7,2.7,0,0,1-2.692-2.692V47.594A2.7,2.7,0,0,1,4.487,44.9H49.358a2.7,2.7,0,0,1,2.692,2.692V76.312Z" transform="translate(0 -34.133)" fill="#fff07c"/>
            <path id="Tracé_34" data-name="Tracé 34" d="M151.333,187.277h-6.282v-6.282a1.8,1.8,0,0,0-1.795-1.795h-5.384a1.8,1.8,0,0,0-1.795,1.795v6.282h-6.282A1.8,1.8,0,0,0,128,189.072v5.384a1.8,1.8,0,0,0,1.795,1.795h6.282v6.282a1.8,1.8,0,0,0,1.795,1.795h5.384a1.8,1.8,0,0,0,1.795-1.795v-6.282h6.282a1.8,1.8,0,0,0,1.795-1.795v-5.384A1.8,1.8,0,0,0,151.333,187.277Zm0,7.179h-6.282a1.8,1.8,0,0,0-1.795,1.795v6.282h-5.384v-6.282a1.8,1.8,0,0,0-1.795-1.795h-6.282v-5.384h6.282a1.8,1.8,0,0,0,1.795-1.795v-6.282h5.384v6.282a1.8,1.8,0,0,0,1.795,1.795l6.282,0Z" transform="translate(-114.539 -163.944)" fill="#fff07c"/>
          </g>
        </g>
      </g>
      <g id="deodorant" transform="translate(713.446 1163.887)">
        <g id="Groupe_7" data-name="Groupe 7" transform="translate(0 0)">
          <g id="Groupe_6" data-name="Groupe 6" transform="translate(0 0)">
            <path id="Tracé_35" data-name="Tracé 35" d="M289.91,47.481h-.852c-.409-4.228-4.232-7.514-8.929-7.514v-.751h1.63a.742.742,0,0,0,.815-.751V33.955a.742.742,0,0,0-.815-.751h-4.89a.742.742,0,0,0-.815.751v4.508a.742.742,0,0,0,.815.751h1.63v.751c-4.7,0-8.52,3.286-8.929,7.514h-.852a.742.742,0,0,0-.815.751v26.3a.742.742,0,0,0,.815.751H289.91a.742.742,0,0,0,.815-.751v-26.3A.741.741,0,0,0,289.91,47.481Zm-12.226-10.52h.815a.754.754,0,1,0,0-1.5h-.815v-.751h3.26v3.006h-3.26Zm.9,4.508h1.63a7.13,7.13,0,0,1,7.254,6.011H271.246A7.155,7.155,0,0,1,278.581,41.469Zm-9.047,24.8h8.15a.754.754,0,1,0,0-1.5h-8.15V62.509h6.52a.754.754,0,1,0,0-1.5h-6.52V58.752h4.075a.754.754,0,1,0,0-1.5h-4.075V55h11.411V68.521H269.534ZM289.1,73.78H269.534V70.023H281.76a.742.742,0,0,0,.815-.751V54.243a.742.742,0,0,0-.815-.751H269.534V48.984H289.1v24.8Z" transform="translate(-241.823 -30.142)" fill="#fff07c"/>
            <path id="Tracé_36" data-name="Tracé 36" d="M277.114,59.887h.815a.754.754,0,1,0,0-1.5h-.815a.754.754,0,1,0,0,1.5Z" transform="translate(-249.402 -53.068)" fill="#fff07c"/>
            <path id="Tracé_37" data-name="Tracé 37" d="M176.393,59.887h.815a.754.754,0,1,0,0-1.5h-.815a.754.754,0,1,0,0,1.5Z" transform="translate(-158.462 -53.068)" fill="#fff07c"/>
            <path id="Tracé_38" data-name="Tracé 38" d="M209.966,59.887h.815a.754.754,0,1,0,0-1.5h-.815a.754.754,0,1,0,0,1.5Z" transform="translate(-188.775 -53.068)" fill="#fff07c"/>
            <path id="Tracé_39" data-name="Tracé 39" d="M244.355,59.887a.754.754,0,1,0,0-1.5h-.815a.754.754,0,1,0,0,1.5Z" transform="translate(-219.088 -53.068)" fill="#fff07c"/>
            <path id="Tracé_40" data-name="Tracé 40" d="M310.688,59.887h.815a.754.754,0,1,0,0-1.5h-.815a.754.754,0,1,0,0,1.5Z" transform="translate(-279.716 -53.068)" fill="#fff07c"/>
            <path id="Tracé_41" data-name="Tracé 41" d="M279.67,21.562l.734.225a.316.316,0,0,0,.244.075.983.983,0,0,0,.815-.526.889.889,0,0,0-.489-.977l-.734-.225a.835.835,0,0,0-1.059.451A.738.738,0,0,0,279.67,21.562Z" transform="translate(-251.958 -18.199)" fill="#fff07c"/>
            <path id="Tracé_42" data-name="Tracé 42" d="M311.565,31.635l.734.225a.316.316,0,0,0,.245.075.714.714,0,0,0,.734-.451.738.738,0,0,0-.489-.977l-.652-.3a.835.835,0,0,0-1.06.451A.738.738,0,0,0,311.565,31.635Z" transform="translate(-280.756 -27.37)" fill="#fff07c"/>
            <path id="Tracé_43" data-name="Tracé 43" d="M219.458-.794l-.489-.15a.776.776,0,0,0-1.059.451.738.738,0,0,0,.489.977l.489.15a.316.316,0,0,0,.245.075.85.85,0,0,0,.815-.526A.738.738,0,0,0,219.458-.794Z" transform="translate(-196.636 1.001)" fill="#fff07c"/>
            <path id="Tracé_44" data-name="Tracé 44" d="M246.936,10.651l.815.225a.316.316,0,0,0,.245.075.775.775,0,0,0,.734-.526.738.738,0,0,0-.489-.977l-.734-.225a.835.835,0,0,0-1.06.451A.738.738,0,0,0,246.936,10.651Z" transform="translate(-222.403 -8.265)" fill="#fff07c"/>
            <path id="Tracé_45" data-name="Tracé 45" d="M249.568,105.359a.871.871,0,0,0-1.059-.451l-.734.225a.765.765,0,0,0-.489.977.775.775,0,0,0,.734.526c.081,0,.163-.075.326-.075l.734-.225A.765.765,0,0,0,249.568,105.359Z" transform="translate(-223.161 -95.384)" fill="#fff07c"/>
            <path id="Tracé_46" data-name="Tracé 46" d="M218.887,114.98l-.489.15a.765.765,0,0,0-.489.977.774.774,0,0,0,.734.526.659.659,0,0,0,.326-.075l.489-.15a.765.765,0,0,0,.489-.977A.871.871,0,0,0,218.887,114.98Z" transform="translate(-196.636 -104.554)" fill="#fff07c"/>
            <path id="Tracé_47" data-name="Tracé 47" d="M280.4,94l-.734.225a.765.765,0,0,0-.489.977.775.775,0,0,0,.734.526.659.659,0,0,0,.326-.075l.734-.225a.765.765,0,0,0,.489-.977A.871.871,0,0,0,280.4,94Z" transform="translate(-251.958 -85.449)" fill="#fff07c"/>
            <path id="Tracé_48" data-name="Tracé 48" d="M312.3,83.085l-.734.225a.765.765,0,0,0-.489.977.775.775,0,0,0,.734.526.659.659,0,0,0,.326-.075l.733-.225a.765.765,0,0,0,.489-.977A.871.871,0,0,0,312.3,83.085Z" transform="translate(-280.756 -75.515)" fill="#fff07c"/>
            <path id="Tracé_49" data-name="Tracé 49" d="M15.289,302.633H6.079A6.5,6.5,0,0,0-.686,308.87v11.722h22.74V308.87A6.5,6.5,0,0,0,15.289,302.633Zm5.216,16.456H.944V308.87a4.926,4.926,0,0,1,5.135-4.734h9.291a4.926,4.926,0,0,1,5.135,4.734v10.219Z" transform="translate(0.686 -275.451)" fill="#fff07c"/>
          </g>
        </g>
      </g>
      <g id="battery" transform="translate(846.5 1159.353)">
        <path id="Tracé_50" data-name="Tracé 50" d="M39.048,3.511H33.311V0H22.778V3.511H17.041A3.044,3.044,0,0,0,14,6.552V49.626a3.044,3.044,0,0,0,3.041,3.041H39.047a3.044,3.044,0,0,0,3.042-3.041V6.552A3.044,3.044,0,0,0,39.048,3.511ZM24.533,1.756h7.022V3.511H24.533Zm15.8,47.871a1.286,1.286,0,0,1-1.285,1.285H17.041a1.286,1.286,0,0,1-1.285-1.285V6.552a1.286,1.286,0,0,1,1.285-1.285H39.048a1.286,1.286,0,0,1,1.285,1.285Z" transform="translate(-14)" fill="#fff07c"/>
        <path id="Tracé_51" data-name="Tracé 51" d="M32.436,16.946a.924.924,0,0,0-.531-.884l-.685-.28-.434.535L21.2,31.773h5.088l0,11.309a.932.932,0,0,0,.509.88l.7.308.444-.558L36.52,27.384H32.436ZM33.618,29.14l-5.57,10.626,0-9.748h-3.69L30.68,19.811V29.14Z" transform="translate(-14.88 -1.929)" fill="#fff07c"/>
      </g>
      <g id="ambulance" transform="translate(334 1300.949)">
        <g id="Groupe_9" data-name="Groupe 9" transform="translate(0 0)">
          <g id="Groupe_8" data-name="Groupe 8">
            <path id="Tracé_52" data-name="Tracé 52" d="M86.176,374.06a1.843,1.843,0,1,0,1.843,1.843A1.848,1.848,0,0,0,86.176,374.06Z" transform="translate(-75.121 -339.974)" fill="#fff07c"/>
            <path id="Tracé_53" data-name="Tracé 53" d="M393.376,374.06a1.843,1.843,0,1,0,1.843,1.843A1.848,1.848,0,0,0,393.376,374.06Z" transform="translate(-349.156 -339.974)" fill="#fff07c"/>
            <path id="Tracé_54" data-name="Tracé 54" d="M54.183,92.229V78.871a2.968,2.968,0,0,0-2.948-2.948H47.366l-.092-.092-.737-.921-5.343-6.725a4.057,4.057,0,0,0-3.224-1.566H31.244v-4.7a3.52,3.52,0,0,0-3.5-3.593H2.593A3.54,3.54,0,0,0-1,61.92V92.413a2.714,2.714,0,0,0,2.764,2.764H3.671a6.45,6.45,0,0,0,12.767,0h20.4a6.45,6.45,0,0,0,12.767,0h1.631A2.91,2.91,0,0,0,54.183,92.229ZM36.771,68.461h1.29a2.269,2.269,0,0,1,1.75.829l3.04,3.777H37.416a.63.63,0,0,1-.645-.645V68.461ZM.843,61.92a1.694,1.694,0,0,1,1.75-1.75H27.651a1.749,1.749,0,0,1,1.75,1.75V82.28H.843Zm9.212,36.942a4.606,4.606,0,1,1,4.606-4.606A4.562,4.562,0,0,1,10.055,98.862ZM29.4,93.335H16.439a6.4,6.4,0,0,0-5.779-5.5l-.066,0c-.075-.006-.151-.012-.227-.016-.1,0-.207-.008-.312-.008s-.208,0-.312.008c-.076,0-.152.01-.227.016l-.066,0a6.4,6.4,0,0,0-5.779,5.5H1.764a.87.87,0,0,1-.921-.921V84.122H29.4ZM43.22,98.862a4.606,4.606,0,1,1,4.606-4.606A4.562,4.562,0,0,1,43.22,98.862ZM52.34,82.28H37.693a.921.921,0,1,0,0,1.842H52.34v8.015a1.142,1.142,0,0,1-1.105,1.2H49.6a6.449,6.449,0,0,0-12.779.092H31.244V68.553h3.685v3.869a2.477,2.477,0,0,0,2.487,2.487h6.725L45.8,77.028a1.968,1.968,0,0,0,1.566.737h3.869a1.12,1.12,0,0,1,1.105,1.105V82.28Z" transform="translate(1 -58.327)" fill="#fff07c"/>
            <path id="Tracé_55" data-name="Tracé 55" d="M95.664,121.744H93.545v-2.119a1.479,1.479,0,0,0-1.474-1.566H89.584a1.5,1.5,0,0,0-1.566,1.566v2.027H85.9a1.553,1.553,0,0,0-1.566,1.566v2.487a1.479,1.479,0,0,0,1.474,1.566h2.119v2.119a1.553,1.553,0,0,0,1.566,1.566h2.487a1.479,1.479,0,0,0,1.566-1.474v-2.119h2.119a1.553,1.553,0,0,0,1.566-1.566V123.31A1.553,1.553,0,0,0,95.664,121.744Zm-.276,3.685H93.269A1.553,1.553,0,0,0,91.7,127v2.119H89.86V127a1.553,1.553,0,0,0-1.566-1.566H86.176v-1.843h2.119a1.553,1.553,0,0,0,1.566-1.566V119.9H91.7v2.119a1.553,1.553,0,0,0,1.566,1.566h2.119v1.843Z" transform="translate(-75.121 -111.61)" fill="#fff07c"/>
          </g>
        </g>
      </g>
      <g id="microwave-oven" transform="translate(459.55 1302.792)">
        <path id="Tracé_56" data-name="Tracé 56" d="M52.273,36.591V1.742A1.742,1.742,0,0,0,50.531,0H1.743A1.742,1.742,0,0,0,0,1.742V36.591a1.742,1.742,0,0,0,1.742,1.742H50.531A1.742,1.742,0,0,0,52.273,36.591ZM1.743,1.742H50.531V36.591H1.743Zm0,0" transform="translate(0 0)" fill="#fff07c"/>
        <path id="Tracé_57" data-name="Tracé 57" d="M65.5,34.133H35.875a1.742,1.742,0,0,0-1.742,1.742V63.754A1.742,1.742,0,0,0,35.875,65.5H65.5a1.742,1.742,0,0,0,1.742-1.742V35.875A1.742,1.742,0,0,0,65.5,34.133Zm0,1.742v1.9a2.587,2.587,0,0,0-.871-.16H36.746a2.591,2.591,0,0,0-.871.16v-1.9Zm0,4.356a.871.871,0,0,1-.871.871H36.746a.871.871,0,1,1,0-1.742H64.625A.871.871,0,0,1,65.5,40.231ZM35.875,63.754V42.685a2.59,2.59,0,0,0,.871.16H64.625a2.586,2.586,0,0,0,.871-.16V63.754Zm0,0" transform="translate(-30.648 -30.648)" fill="#fff07c"/>
        <path id="Tracé_58" data-name="Tracé 58" d="M385.048,51.2h-8.712a.871.871,0,1,0,0,1.742h8.712a.871.871,0,1,0,0-1.742Zm0,0" transform="translate(-337.132 -45.972)" fill="#fff07c"/>
        <path id="Tracé_59" data-name="Tracé 59" d="M385.048,85.332h-8.712a.871.871,0,1,0,0,1.742h8.712a.871.871,0,1,0,0-1.742Zm0,0" transform="translate(-337.132 -76.62)" fill="#fff07c"/>
        <path id="Tracé_60" data-name="Tracé 60" d="M385.048,221.867h-8.712a.871.871,0,1,0,0,1.742h8.712a.871.871,0,1,0,0-1.742Zm0,0" transform="translate(-337.132 -199.215)" fill="#fff07c"/>
        <path id="Tracé_61" data-name="Tracé 61" d="M392.712,123.821a4.356,4.356,0,1,0-4.356,4.356A4.356,4.356,0,0,0,392.712,123.821Zm-6.97,0a2.614,2.614,0,1,1,2.614,2.614A2.614,2.614,0,0,1,385.742,123.821Zm0,0" transform="translate(-344.795 -107.268)" fill="#fff07c"/>
        <path id="Tracé_62" data-name="Tracé 62" d="M388.356,256a4.356,4.356,0,1,0,4.356,4.356A4.356,4.356,0,0,0,388.356,256Zm0,6.97a2.614,2.614,0,1,1,2.613-2.613A2.614,2.614,0,0,1,388.356,262.97Zm0,0" transform="translate(-344.795 -229.863)" fill="#fff07c"/>
        <path id="Tracé_63" data-name="Tracé 63" d="M88.626,136.691a.872.872,0,0,0-1.214.209L76.957,151.711a.871.871,0,1,0,1.423,1.005l10.454-14.811a.871.871,0,0,0-.209-1.215Zm0,0" transform="translate(-68.957 -122.592)" fill="#fff07c"/>
        <path id="Tracé_64" data-name="Tracé 64" d="M148.36,136.691a.872.872,0,0,0-1.214.209l-10.455,14.811a.871.871,0,0,0,1.424,1.005l10.454-14.811a.871.871,0,0,0-.209-1.215Zm0,0" transform="translate(-122.592 -122.592)" fill="#fff07c"/>
        <path id="Tracé_65" data-name="Tracé 65" d="M208.094,136.691a.872.872,0,0,0-1.215.209l-10.454,14.811a.871.871,0,0,0,1.424,1.005L208.3,137.906a.871.871,0,0,0-.209-1.215Zm0,0" transform="translate(-176.227 -122.592)" fill="#fff07c"/>
        <path id="Tracé_66" data-name="Tracé 66" d="M77.679,144.372a.871.871,0,0,0,.71-.365l4.356-6.1a.871.871,0,1,0-1.418-1.012l-4.356,6.1a.871.871,0,0,0,.708,1.377Zm0,0" transform="translate(-68.967 -122.592)" fill="#fff07c"/>
        <path id="Tracé_67" data-name="Tracé 67" d="M260.516,222.229l-4.356,6.1a.871.871,0,0,0,1.419,1.012l4.356-6.1a.871.871,0,1,0-1.418-1.013Zm0,0" transform="translate(-229.861 -199.213)" fill="#fff07c"/>
      </g>
      <g id="courrier" transform="translate(586.606 1296.792)">
        <g id="Groupe_11" data-name="Groupe 11" transform="translate(0 0)">
          <g id="Groupe_10" data-name="Groupe 10">
            <path id="Tracé_68" data-name="Tracé 68" d="M66.54,39.362a5.424,5.424,0,0,0-2.053-2.323l-31.7-18.3a2.26,2.26,0,0,0-2.209-.18L26.84,20.429c-.015.005-.032.006-.046.011a1.9,1.9,0,0,0-1.1,1.266L19.442,42.483c-.518,1.724.691,4.334,2.487,5.372l31.7,18.3a2.734,2.734,0,0,0,1.354.4,1.9,1.9,0,0,0,.444-.058l.023,0c.006,0,.011-.007.017-.009a1.815,1.815,0,0,0,.207-.059c.029-.012.053-.031.081-.044a.645.645,0,0,0,.085-.031l3.834-1.922c.006,0,.01-.009.016-.012a1.873,1.873,0,0,0,1.032-1.232l6.25-20.779A4.339,4.339,0,0,0,66.54,39.362ZM20.852,44.484a2.694,2.694,0,0,1-.15-1.621h0l6.254-20.777c0-.017.014-.025.02-.041l9.835,18.839ZM28.437,22,59.882,40.154a3,3,0,0,1,.4.286c.036.03.071.059.107.091a3.953,3.953,0,0,1,.337.339c.049.056.094.118.141.177s.069.091.1.137L44.534,44.89h0l-.894.2c-1.584.352-3.868-1.379-5.21-3.952Zm-5.85,24.716a2.992,2.992,0,0,1-.4-.287h0c-.035-.029-.07-.057-.1-.088A3.951,3.951,0,0,1,21.742,46c-.044-.051-.085-.107-.128-.161s-.075-.1-.112-.15l15.946-3.6c.016.029.034.055.05.083.06.1.122.207.185.308.044.071.087.142.131.212.069.107.14.21.212.314.041.06.082.121.124.179.082.113.166.222.251.331.035.044.068.091.1.134q.167.208.341.4l.028.032a9.492,9.492,0,0,0,.791.783c.036.031.072.06.108.09.1.083.2.166.3.242.05.038.1.073.15.11.086.064.173.127.26.186.058.039.116.075.174.112.08.05.159.1.239.146.063.037.127.07.19.1s.151.079.226.116.134.062.2.091.143.061.214.088.14.052.211.075.137.044.2.063.144.04.215.056.132.028.2.04.145.026.217.035.13.013.194.017.141.011.211.012l.05,0c.059,0,.117-.006.176-.009s.105,0,.157-.008a3.1,3.1,0,0,0,.375-.059l.4-.09,9.7,18.585ZM55.513,64.783c-.005.017-.015.026-.02.042l-9.835-18.84,15.959-3.6a2.692,2.692,0,0,1,.15,1.621Zm10.2-22.752L59.464,62.8c-.1.335-.272.4-.328.423-.015.006-.024.018-.038.025l-.012,0-2.047,1.026,5.988-19.9c.459-1.525-.436-3.742-1.892-4.952h0a4.314,4.314,0,0,0-.594-.419l-31.528-18.2,2.168-1.087.005,0a1.019,1.019,0,0,1,.946.156l31.7,18.3a4.091,4.091,0,0,1,1.527,1.76,3.1,3.1,0,0,1,.355,2.093Z" transform="translate(-17.791 -16.557)" fill="#fff07c"/>
            <path id="Tracé_69" data-name="Tracé 69" d="M3.979,1.228l4.556,2.63a.658.658,0,0,0,.658-1.14L4.637.088a.658.658,0,0,0-.658,1.14Z" transform="translate(-3.65 0)" fill="#fff07c"/>
            <path id="Tracé_70" data-name="Tracé 70" d="M3.979,45.821l3.037,1.754a.658.658,0,1,0,.658-1.14L4.637,44.681a.658.658,0,0,0-.658,1.14Z" transform="translate(-3.65 -40.238)" fill="#fff07c"/>
            <path id="Tracé_71" data-name="Tracé 71" d="M3.979,90.412l1.518.877a.658.658,0,0,0,.658-1.14l-1.518-.877a.658.658,0,0,0-.658,1.14Z" transform="translate(-3.65 -80.475)" fill="#fff07c"/>
            <path id="Tracé_72" data-name="Tracé 72" d="M5.635,135.207a.658.658,0,0,0-.241-.9l-.759-.438a.658.658,0,0,0-.658,1.14l.759.438A.658.658,0,0,0,5.635,135.207Z" transform="translate(-3.648 -120.717)" fill="#fff07c"/>
          </g>
        </g>
      </g>
      <g id="conversation" transform="translate(709.897 1297.037)">
        <path id="Tracé_73" data-name="Tracé 73" d="M44.28,206.144l-3.238-.306A3.239,3.239,0,0,1,38,202.991V201.7a7.5,7.5,0,0,0,1.4-2.752c.878-.306,1.269-1.148,1.678-2.03l.036-.075c.8-1.721.286-3.525-1.212-4.124q-.143-.056-.292-.1a5.458,5.458,0,0,0-5.48-4.883H32.169a5.457,5.457,0,0,0-5.478,4.883q-.169.049-.333.113c-1.459.582-1.975,2.385-1.174,4.107l.037.074c.409.882.8,1.725,1.678,2.03a7.5,7.5,0,0,0,1.4,2.755v1.294a2.956,2.956,0,0,1-2.789,2.845l-1.4.156-1.664-.157a3.24,3.24,0,0,1-3.045-2.843V201.7a7.513,7.513,0,0,0,1.4-2.752c.878-.306,1.269-1.148,1.678-2.03l.036-.075c.8-1.721.285-3.525-1.213-4.124-.1-.038-.193-.071-.292-.1a5.458,5.458,0,0,0-5.48-4.883H13.574A5.457,5.457,0,0,0,8.1,192.617c-.114.032-.226.069-.335.111-1.456.582-1.975,2.385-1.174,4.107l.036.074c.409.883.8,1.725,1.678,2.03A7.505,7.505,0,0,0,9.7,201.7v1.294a2.955,2.955,0,0,1-2.791,2.845l-2.683.308A4.472,4.472,0,0,0,0,210.46v3.5a2.192,2.192,0,0,0,2.272,2.094H46.236a2.191,2.191,0,0,0,2.272-2.094v-3.5a4.472,4.472,0,0,0-4.227-4.315Zm-16.657-8.571c-.3-.013-.459-.262-.915-1.244l-.037-.08c-.46-.988-.21-1.91.318-2.147.04.02.081.042.132.064a.868.868,0,0,0,.789-.028.735.735,0,0,0,.386-.635v-.551a3.85,3.85,0,0,1,3.873-3.727h1.956A3.85,3.85,0,0,1,38,192.952v.551a.735.735,0,0,0,.386.636.868.868,0,0,0,.789.029l.133-.064c.523.223.781,1.151.318,2.147l-.037.079c-.456.982-.611,1.231-.915,1.244a.788.788,0,0,0-.759.622c-.4,2.185-2.288,4.446-4.765,4.446s-4.366-2.26-4.765-4.446a.788.788,0,0,0-.759-.622Zm2.273,5.584a5.912,5.912,0,0,0,6.494.005,4.6,4.6,0,0,0,3.249,3.882,12.8,12.8,0,0,1-6.492,1.56,15.177,15.177,0,0,1-4-.517,4.538,4.538,0,0,0-1.557-1.361,4.284,4.284,0,0,0,2.31-3.569ZM9.028,197.573c-.3-.013-.459-.262-.915-1.244l-.037-.08c-.46-.988-.21-1.91.319-2.147.04.02.081.042.132.064a.868.868,0,0,0,.789-.028A.734.734,0,0,0,9.7,193.5v-.551a3.85,3.85,0,0,1,3.873-3.727h1.957a3.85,3.85,0,0,1,3.873,3.727v.551a.735.735,0,0,0,.386.636.868.868,0,0,0,.789.029l.132-.064c.523.223.781,1.151.318,2.147l-.037.079c-.456.982-.61,1.231-.915,1.244a.789.789,0,0,0-.759.622c-.4,2.185-2.288,4.446-4.765,4.446s-4.366-2.26-4.765-4.446a.788.788,0,0,0-.759-.622Zm2.273,5.584a5.912,5.912,0,0,0,6.494.005,4.6,4.6,0,0,0,3.248,3.882,12.793,12.793,0,0,1-6.492,1.56,12.94,12.94,0,0,1-6.418-1.51,4.38,4.38,0,0,0,3.167-3.936Zm9.565,11.41H2.272a.631.631,0,0,1-.655-.6v-3.5a2.943,2.943,0,0,1,2.791-2.837l1.668-.189c1.676,1.623,4.92,2.662,8.477,2.662,3.591,0,6.85-1.054,8.519-2.7l2.45.231a3.093,3.093,0,0,1,2.367,1.427l.006.012a2.679,2.679,0,0,1,.4,1.4v3.5a.631.631,0,0,1-.655.6Zm26.024-.6a.631.631,0,0,1-.655.6H29.805a1.927,1.927,0,0,0,.108-.6v-3.5a3.991,3.991,0,0,0-.069-.676,17.731,17.731,0,0,0,3.3.311c3.591,0,6.85-1.054,8.519-2.7l2.451.231a2.938,2.938,0,0,1,2.775,2.836Zm0,0" transform="translate(0 -171.337)" fill="#fff07c"/>
        <path id="Tracé_74" data-name="Tracé 74" d="M20.365,17.764a1.733,1.733,0,0,0,1.682-.111l3.961-2.609a.846.846,0,0,1,.468-.137H38.894a2.336,2.336,0,0,0,2.425-2.236v-.745h8.925a1.7,1.7,0,0,1,.94.278l3.749,2.469a1.734,1.734,0,0,0,1.68.112,1.481,1.481,0,0,0,.877-1.326V11.925a2.337,2.337,0,0,0,2.425-2.236V2.236A2.336,2.336,0,0,0,57.489,0h-19.4A2.337,2.337,0,0,0,35.66,2.236H19.491a2.336,2.336,0,0,0-2.426,2.236v8.2a2.1,2.1,0,0,0,.706,1.571,2.484,2.484,0,0,0,1.719.665v1.535a1.473,1.473,0,0,0,.874,1.321ZM37.277,2.236a.779.779,0,0,1,.809-.746h19.4a.779.779,0,0,1,.808.746V9.689a.779.779,0,0,1-.808.746,1.558,1.558,0,0,0-1.617,1.491v1.533L52.123,10.99a3.4,3.4,0,0,0-1.879-.555H38.085a.779.779,0,0,1-.809-.746ZM18.914,13.188a.693.693,0,0,1-.232-.517v-8.2a.779.779,0,0,1,.809-.745H35.66V9.689a2.337,2.337,0,0,0,2.426,2.236H39.7v.745a.779.779,0,0,1-.808.746H26.476a2.568,2.568,0,0,0-1.407.414l-3.961,2.612V14.907a1.558,1.558,0,0,0-1.617-1.491.826.826,0,0,1-.577-.228Zm0,0" transform="translate(-15.448 0)" fill="#fff07c"/>
        <path id="Tracé_75" data-name="Tracé 75" d="M256.809,44.159h13.744a.748.748,0,1,0,0-1.491H256.809a.748.748,0,1,0,0,1.491Zm0,0" transform="translate(-231.746 -38.941)" fill="#fff07c"/>
        <path id="Tracé_76" data-name="Tracé 76" d="M256.809,78.291h5.659a.748.748,0,1,0,0-1.491h-5.659a.748.748,0,1,0,0,1.491Zm0,0" transform="translate(-231.746 -70.093)" fill="#fff07c"/>
        <path id="Tracé_77" data-name="Tracé 77" d="M370.976,76.8h-3.234a.748.748,0,1,0,0,1.491h3.234a.748.748,0,1,0,0-1.491Zm0,0" transform="translate(-332.17 -70.093)" fill="#fff07c"/>
        <path id="Tracé_78" data-name="Tracé 78" d="M60.543,69.756h10.51a.748.748,0,1,0,0-1.491H60.543a.748.748,0,1,0,0,1.491Zm0,0" transform="translate(-54.075 -62.303)" fill="#fff07c"/>
        <path id="Tracé_79" data-name="Tracé 79" d="M60.543,112.424h4.851a.748.748,0,1,0,0-1.491H60.543a.748.748,0,1,0,0,1.491Zm0,0" transform="translate(-54.075 -101.244)" fill="#fff07c"/>
        <path id="Tracé_80" data-name="Tracé 80" d="M148.3,110.934h-2.425a.748.748,0,1,0,0,1.491H148.3a.748.748,0,1,0,0-1.491Zm0,0" transform="translate(-131.322 -101.244)" fill="#fff07c"/>
      </g>
      <path id="Shape-3" data-name="Shape" d="M1.351,21.185a15.863,15.863,0,0,0,8.474,2.44,16.21,16.21,0,0,0,3.034-.263l-.847,23.922a.847.847,0,0,0,.449.78c3.254,1.72,6.728,2.779,13.957,2.779s10.7-1.059,13.957-2.779a.847.847,0,0,0,.449-.78l-.847-23.922a16.211,16.211,0,0,0,2.974.28,15.863,15.863,0,0,0,8.474-2.44.847.847,0,0,0,.322-.932C48.356,8.593,44.119,4.025,43.924,3.839,43.551,3.39,35.925,0,34.044,0H18.791C16.859,0,9.274,3.39,8.859,3.839,8.681,4.025,4.436,8.593,1,20.27a.847.847,0,0,0,.356.915Zm1.491-1.076c.186-.627.373-1.22.568-1.8A16.1,16.1,0,0,0,12.215,20c.178.678.33,1.254.441,1.695a14.685,14.685,0,0,1-9.813-1.568Zm8.94-1.8A14.406,14.406,0,0,1,3.97,16.685,44.819,44.819,0,0,1,8.978,6.457c.695,3.517,1.907,8.406,2.8,11.864ZM43.857,6.44a44.623,44.623,0,0,1,5.008,10.245A14.516,14.516,0,0,1,41.052,18.3c.9-3.44,2.11-8.33,2.8-11.847ZM40.179,21.693c.11-.432.263-1.008.441-1.695a16.1,16.1,0,0,0,8.8-1.695c.195.585.381,1.178.568,1.8a14.541,14.541,0,0,1-9.813,1.559ZM26.417,8.474c5.847,0,7.728-4.6,8.271-6.6.585.144,1.186.33,1.78.525a8.974,8.974,0,0,1-9.2,7.771H25.57a8.957,8.957,0,0,1-9.2-7.771c.593-.195,1.195-.381,1.78-.525.542,2,2.424,6.6,8.271,6.6ZM19.841,1.695H32.993a6.576,6.576,0,0,1-6.576,5.084A6.567,6.567,0,0,1,19.841,1.695ZM14.757,2.983A10.652,10.652,0,0,0,25.57,11.864h1.695A10.635,10.635,0,0,0,38.086,2.983c1.881.72,3.525,1.508,4.339,1.915-.975,5.576-4.144,17.27-4.144,17.177-.042.195-.076-1.322.805,24.735-2.932,1.491-6.1,2.339-12.669,2.339S16.681,48.3,13.706,46.81c.89-26.269.847-24.532.847-24.718-.28-1.11-3.135-11.558-4.118-17.194a44.789,44.789,0,0,1,4.313-1.915Z" transform="translate(833.681 1295.949)" fill="#fff07c"/>
    </g>
  </g>
</svg>
